solid OpenSCAD_Model
  facet normal -1 0 0
    outer loop
      vertex -12 -2.1 -3.5
      vertex -12 -2.1 3.5
      vertex -12 2.1 -3.5
    endloop
  endfacet
  facet normal -1 0 0
    outer loop
      vertex -12 2.1 -3.5
      vertex -12 -2.1 3.5
      vertex -12 2.1 3.5
    endloop
  endfacet
  facet normal 0 -1 0
    outer loop
      vertex -12 -2.1 3.5
      vertex -12 -2.1 -3.5
      vertex -5.75 -2.1 -3.5
    endloop
  endfacet
  facet normal 0 -1 0
    outer loop
      vertex -5.75 -2.1 3.5
      vertex -12 -2.1 3.5
      vertex -5.75 -2.1 -3.5
    endloop
  endfacet
  facet normal 0 0 -1
    outer loop
      vertex -12 -2.1 -3.5
      vertex -12 2.1 -3.5
      vertex -5.75 -2.1 -3.5
    endloop
  endfacet
  facet normal 0 0 -1
    outer loop
      vertex -5.75 -2.1 -3.5
      vertex -12 2.1 -3.5
      vertex -5.75 2.1 -3.5
    endloop
  endfacet
  facet normal 0 0 -1
    outer loop
      vertex -5.75 2.1 -3.5
      vertex -5.75 5.75 -3.5
      vertex 5.75 5.75 -3.5
    endloop
  endfacet
  facet normal 0 0 -1
    outer loop
      vertex 5.75 -2.1 -3.5
      vertex 12 2.1 -3.5
      vertex 12 -2.1 -3.5
    endloop
  endfacet
  facet normal 0 0 -1
    outer loop
      vertex 3.75278 0 -3.5
      vertex 12 2.1 -3.5
      vertex 5.75 -2.1 -3.5
    endloop
  endfacet
  facet normal 0 0 -1
    outer loop
      vertex -1.87639 -3.25 -3.5
      vertex -5.75 -2.1 -3.5
      vertex -3.75278 0 -3.5
    endloop
  endfacet
  facet normal 0 0 -1
    outer loop
      vertex -1.87639 -3.25 -3.5
      vertex 5.75 -5.75 -3.5
      vertex -5.75 -2.1 -3.5
    endloop
  endfacet
  facet normal 0 0 -1
    outer loop
      vertex 1.87639 3.25 -3.5
      vertex 5.75 5.75 -3.5
      vertex 5.75 2.1 -3.5
    endloop
  endfacet
  facet normal 0 0 -1
    outer loop
      vertex -5.75 2.1 -3.5
      vertex -3.75278 0 -3.5
      vertex -5.75 -2.1 -3.5
    endloop
  endfacet
  facet normal 0 0 -1
    outer loop
      vertex 1.87639 -3.25 -3.5
      vertex 5.75 -5.75 -3.5
      vertex -1.87639 -3.25 -3.5
    endloop
  endfacet
  facet normal 0 0 -1
    outer loop
      vertex 3.75278 0 -3.5
      vertex 5.75 -2.1 -3.5
      vertex 1.87639 -3.25 -3.5
    endloop
  endfacet
  facet normal 0 0 -1
    outer loop
      vertex 5.75 -2.1 -3.5
      vertex 5.75 -5.75 -3.5
      vertex 1.87639 -3.25 -3.5
    endloop
  endfacet
  facet normal 0 0 -1
    outer loop
      vertex -5.75 2.1 -3.5
      vertex 5.75 5.75 -3.5
      vertex -1.87639 3.25 -3.5
    endloop
  endfacet
  facet normal 0 0 -1
    outer loop
      vertex -5.75 2.1 -3.5
      vertex -1.87639 3.25 -3.5
      vertex -3.75278 0 -3.5
    endloop
  endfacet
  facet normal 0 0 -1
    outer loop
      vertex -5.75 -2.1 -3.5
      vertex 5.75 -5.75 -3.5
      vertex -5.75 -5.75 -3.5
    endloop
  endfacet
  facet normal 0 0 -1
    outer loop
      vertex -1.87639 3.25 -3.5
      vertex 5.75 5.75 -3.5
      vertex 1.87639 3.25 -3.5
    endloop
  endfacet
  facet normal 0 0 -1
    outer loop
      vertex 5.75 2.1 -3.5
      vertex 12 2.1 -3.5
      vertex 3.75278 0 -3.5
    endloop
  endfacet
  facet normal 0 0 -1
    outer loop
      vertex 1.87639 3.25 -3.5
      vertex 5.75 2.1 -3.5
      vertex 3.75278 0 -3.5
    endloop
  endfacet
  facet normal 0 1 0
    outer loop
      vertex -12 2.1 -3.5
      vertex -12 2.1 3.5
      vertex -5.75 2.1 -3.5
    endloop
  endfacet
  facet normal 0 1 0
    outer loop
      vertex -5.75 2.1 -3.5
      vertex -12 2.1 3.5
      vertex -5.75 2.1 3.5
    endloop
  endfacet
  facet normal 0 0 1
    outer loop
      vertex 4.125 2.38157 3.5
      vertex 4.125 -2.38157 3.5
      vertex 5.75 -2.1 3.5
    endloop
  endfacet
  facet normal 0 0 1
    outer loop
      vertex -12 2.1 3.5
      vertex -12 -2.1 3.5
      vertex -5.75 -2.1 3.5
    endloop
  endfacet
  facet normal 0 0 1
    outer loop
      vertex -4.125 -2.38157 3.5
      vertex -12 2.1 3.5
      vertex -5.75 -2.1 3.5
    endloop
  endfacet
  facet normal 0 0 1
    outer loop
      vertex -4.125 2.38157 3.5
      vertex 1.05763e-15 4.76314 3.5
      vertex -5.75 2.1 3.5
    endloop
  endfacet
  facet normal 0 0 1
    outer loop
      vertex 12 -2.1 3.5
      vertex 12 2.1 3.5
      vertex 5.75 2.1 3.5
    endloop
  endfacet
  facet normal 0 0 1
    outer loop
      vertex 1.05763e-15 4.76314 3.5
      vertex 5.75 5.75 3.5
      vertex -5.75 5.75 3.5
    endloop
  endfacet
  facet normal 0 0 1
    outer loop
      vertex 4.125 2.38157 3.5
      vertex 5.75 -2.1 3.5
      vertex 12 -2.1 3.5
    endloop
  endfacet
  facet normal 0 0 1
    outer loop
      vertex 1.05763e-15 4.76314 3.5
      vertex 4.125 2.38157 3.5
      vertex 5.75 5.75 3.5
    endloop
  endfacet
  facet normal 0 0 1
    outer loop
      vertex 4.125 -2.38157 3.5
      vertex -1.05763e-15 -4.76314 3.5
      vertex 5.75 -5.75 3.5
    endloop
  endfacet
  facet normal 0 0 1
    outer loop
      vertex 4.125 2.38157 3.5
      vertex 12 -2.1 3.5
      vertex 5.75 2.1 3.5
    endloop
  endfacet
  facet normal 0 0 1
    outer loop
      vertex -1.05763e-15 -4.76314 3.5
      vertex -4.125 -2.38157 3.5
      vertex -5.75 -2.1 3.5
    endloop
  endfacet
  facet normal 0 0 1
    outer loop
      vertex 5.75 2.1 3.5
      vertex 5.75 5.75 3.5
      vertex 4.125 2.38157 3.5
    endloop
  endfacet
  facet normal 0 0 1
    outer loop
      vertex 5.75 -5.75 3.5
      vertex 5.75 -2.1 3.5
      vertex 4.125 -2.38157 3.5
    endloop
  endfacet
  facet normal 0 0 1
    outer loop
      vertex -5.75 -5.75 3.5
      vertex -1.05763e-15 -4.76314 3.5
      vertex -5.75 -2.1 3.5
    endloop
  endfacet
  facet normal 0 0 1
    outer loop
      vertex -5.75 -5.75 3.5
      vertex 5.75 -5.75 3.5
      vertex -1.05763e-15 -4.76314 3.5
    endloop
  endfacet
  facet normal 0 0 1
    outer loop
      vertex -5.75 5.75 3.5
      vertex -5.75 2.1 3.5
      vertex 1.05763e-15 4.76314 3.5
    endloop
  endfacet
  facet normal 0 0 1
    outer loop
      vertex -4.125 -2.38157 3.5
      vertex -5.75 2.1 3.5
      vertex -12 2.1 3.5
    endloop
  endfacet
  facet normal 0 0 1
    outer loop
      vertex -4.125 -2.38157 3.5
      vertex -4.125 2.38157 3.5
      vertex -5.75 2.1 3.5
    endloop
  endfacet
  facet normal -1 0 0
    outer loop
      vertex -5.75 -5.75 -3.5
      vertex -5.75 -5.75 3.5
      vertex -5.75 -2.1 -3.5
    endloop
  endfacet
  facet normal -1 0 0
    outer loop
      vertex -5.75 -2.1 -3.5
      vertex -5.75 -5.75 3.5
      vertex -5.75 -2.1 3.5
    endloop
  endfacet
  facet normal 0 -1 0
    outer loop
      vertex -5.75 -5.75 3.5
      vertex -5.75 -5.75 -3.5
      vertex 5.75 -5.75 -3.5
    endloop
  endfacet
  facet normal 0 -1 0
    outer loop
      vertex 5.75 -5.75 3.5
      vertex -5.75 -5.75 3.5
      vertex 5.75 -5.75 -3.5
    endloop
  endfacet
  facet normal 1 0 0
    outer loop
      vertex 5.75 -5.75 3.5
      vertex 5.75 -5.75 -3.5
      vertex 5.75 -2.1 -3.5
    endloop
  endfacet
  facet normal 1 0 0
    outer loop
      vertex 5.75 -2.1 3.5
      vertex 5.75 -5.75 3.5
      vertex 5.75 -2.1 -3.5
    endloop
  endfacet
  facet normal 0 -1 0
    outer loop
      vertex 5.75 -2.1 3.5
      vertex 5.75 -2.1 -3.5
      vertex 12 -2.1 -3.5
    endloop
  endfacet
  facet normal 0 -1 0
    outer loop
      vertex 12 -2.1 3.5
      vertex 5.75 -2.1 3.5
      vertex 12 -2.1 -3.5
    endloop
  endfacet
  facet normal 1 0 0
    outer loop
      vertex 12 -2.1 3.5
      vertex 12 -2.1 -3.5
      vertex 12 2.1 -3.5
    endloop
  endfacet
  facet normal 1 0 0
    outer loop
      vertex 12 2.1 3.5
      vertex 12 -2.1 3.5
      vertex 12 2.1 -3.5
    endloop
  endfacet
  facet normal 0 1 0
    outer loop
      vertex 5.75 2.1 -3.5
      vertex 5.75 2.1 3.5
      vertex 12 2.1 -3.5
    endloop
  endfacet
  facet normal 0 1 0
    outer loop
      vertex 12 2.1 -3.5
      vertex 5.75 2.1 3.5
      vertex 12 2.1 3.5
    endloop
  endfacet
  facet normal 1 0 0
    outer loop
      vertex 5.75 2.1 3.5
      vertex 5.75 2.1 -3.5
      vertex 5.75 5.75 -3.5
    endloop
  endfacet
  facet normal 1 0 0
    outer loop
      vertex 5.75 5.75 3.5
      vertex 5.75 2.1 3.5
      vertex 5.75 5.75 -3.5
    endloop
  endfacet
  facet normal 0 1 0
    outer loop
      vertex -5.75 5.75 -3.5
      vertex -5.75 5.75 3.5
      vertex 5.75 5.75 -3.5
    endloop
  endfacet
  facet normal 0 1 0
    outer loop
      vertex 5.75 5.75 -3.5
      vertex -5.75 5.75 3.5
      vertex 5.75 5.75 3.5
    endloop
  endfacet
  facet normal -1 0 0
    outer loop
      vertex -5.75 2.1 -3.5
      vertex -5.75 2.1 3.5
      vertex -5.75 5.75 -3.5
    endloop
  endfacet
  facet normal -1 0 0
    outer loop
      vertex -5.75 5.75 -3.5
      vertex -5.75 2.1 3.5
      vertex -5.75 5.75 3.5
    endloop
  endfacet
  facet normal 0.866025 0.5 0
    outer loop
      vertex -3.75278 0 -1.5
      vertex -1.87639 -3.25 -1.5
      vertex -1.87639 -3.25 -3.5
    endloop
  endfacet
  facet normal 0.866025 0.5 0
    outer loop
      vertex -3.75278 0 -3.5
      vertex -3.75278 0 -1.5
      vertex -1.87639 -3.25 -3.5
    endloop
  endfacet
  facet normal 0.866025 -0.5 0
    outer loop
      vertex -1.87639 3.25 -3.5
      vertex -1.87639 3.25 -1.5
      vertex -3.75278 0 -1.5
    endloop
  endfacet
  facet normal 0.866025 -0.5 0
    outer loop
      vertex -3.75278 0 -3.5
      vertex -1.87639 3.25 -3.5
      vertex -3.75278 0 -1.5
    endloop
  endfacet
  facet normal 0 -1 0
    outer loop
      vertex 1.87639 3.25 -3.5
      vertex 1.87639 3.25 -1.5
      vertex -1.87639 3.25 -1.5
    endloop
  endfacet
  facet normal 0 -1 0
    outer loop
      vertex -1.87639 3.25 -3.5
      vertex 1.87639 3.25 -3.5
      vertex -1.87639 3.25 -1.5
    endloop
  endfacet
  facet normal -0.866025 -0.5 0
    outer loop
      vertex 3.75278 0 -1.5
      vertex 1.87639 3.25 -1.5
      vertex 3.75278 0 -3.5
    endloop
  endfacet
  facet normal -0.866025 -0.5 0
    outer loop
      vertex 3.75278 0 -3.5
      vertex 1.87639 3.25 -1.5
      vertex 1.87639 3.25 -3.5
    endloop
  endfacet
  facet normal -0.866025 0.5 0
    outer loop
      vertex 3.75278 0 -1.5
      vertex 3.75278 0 -3.5
      vertex 1.87639 -3.25 -1.5
    endloop
  endfacet
  facet normal -0.866025 0.5 0
    outer loop
      vertex 1.87639 -3.25 -1.5
      vertex 3.75278 0 -3.5
      vertex 1.87639 -3.25 -3.5
    endloop
  endfacet
  facet normal 0 1 0
    outer loop
      vertex 1.87639 -3.25 -1.5
      vertex 1.87639 -3.25 -3.5
      vertex -1.87639 -3.25 -1.5
    endloop
  endfacet
  facet normal 0 1 0
    outer loop
      vertex -1.87639 -3.25 -1.5
      vertex 1.87639 -3.25 -3.5
      vertex -1.87639 -3.25 -3.5
    endloop
  endfacet
  facet normal 1 -2.22045e-16 0
    outer loop
      vertex -4.125 2.38157 -1.5
      vertex -4.125 2.38157 3.5
      vertex -4.125 -2.38157 3.5
    endloop
  endfacet
  facet normal 1 -2.22045e-16 0
    outer loop
      vertex -4.125 -2.38157 -1.5
      vertex -4.125 2.38157 -1.5
      vertex -4.125 -2.38157 3.5
    endloop
  endfacet
  facet normal 0.5 0.866025 0
    outer loop
      vertex -1.05763e-15 -4.76314 3.5
      vertex -1.05763e-15 -4.76314 -1.5
      vertex -4.125 -2.38157 3.5
    endloop
  endfacet
  facet normal 0.5 0.866025 0
    outer loop
      vertex -4.125 -2.38157 3.5
      vertex -1.05763e-15 -4.76314 -1.5
      vertex -4.125 -2.38157 -1.5
    endloop
  endfacet
  facet normal -0.5 0.866025 0
    outer loop
      vertex 4.125 -2.38157 3.5
      vertex 4.125 -2.38157 -1.5
      vertex -1.05763e-15 -4.76314 3.5
    endloop
  endfacet
  facet normal -0.5 0.866025 0
    outer loop
      vertex -1.05763e-15 -4.76314 3.5
      vertex 4.125 -2.38157 -1.5
      vertex -1.05763e-15 -4.76314 -1.5
    endloop
  endfacet
  facet normal -1 2.22045e-16 0
    outer loop
      vertex 4.125 2.38157 3.5
      vertex 4.125 2.38157 -1.5
      vertex 4.125 -2.38157 3.5
    endloop
  endfacet
  facet normal -1 2.22045e-16 0
    outer loop
      vertex 4.125 -2.38157 3.5
      vertex 4.125 2.38157 -1.5
      vertex 4.125 -2.38157 -1.5
    endloop
  endfacet
  facet normal -0.5 -0.866025 0
    outer loop
      vertex 4.125 2.38157 -1.5
      vertex 4.125 2.38157 3.5
      vertex 1.05763e-15 4.76314 3.5
    endloop
  endfacet
  facet normal -0.5 -0.866025 0
    outer loop
      vertex 1.05763e-15 4.76314 -1.5
      vertex 4.125 2.38157 -1.5
      vertex 1.05763e-15 4.76314 3.5
    endloop
  endfacet
  facet normal 0.5 -0.866025 0
    outer loop
      vertex 1.05763e-15 4.76314 -1.5
      vertex 1.05763e-15 4.76314 3.5
      vertex -4.125 2.38157 3.5
    endloop
  endfacet
  facet normal 0.5 -0.866025 0
    outer loop
      vertex -4.125 2.38157 -1.5
      vertex 1.05763e-15 4.76314 -1.5
      vertex -4.125 2.38157 3.5
    endloop
  endfacet
  facet normal 0 0 1
    outer loop
      vertex 3.75278 0 -1.5
      vertex 4.125 -2.38157 -1.5
      vertex 4.125 2.38157 -1.5
    endloop
  endfacet
  facet normal 0 0 1
    outer loop
      vertex 1.87639 3.25 -1.5
      vertex 3.75278 0 -1.5
      vertex 4.125 2.38157 -1.5
    endloop
  endfacet
  facet normal 0 0 1
    outer loop
      vertex -1.87639 3.25 -1.5
      vertex 1.87639 3.25 -1.5
      vertex 1.05763e-15 4.76314 -1.5
    endloop
  endfacet
  facet normal 0 0 1
    outer loop
      vertex -4.125 -2.38157 -1.5
      vertex -3.75278 0 -1.5
      vertex -4.125 2.38157 -1.5
    endloop
  endfacet
  facet normal 0 0 1
    outer loop
      vertex -4.125 2.38157 -1.5
      vertex -1.87639 3.25 -1.5
      vertex 1.05763e-15 4.76314 -1.5
    endloop
  endfacet
  facet normal 0 0 1
    outer loop
      vertex 1.05763e-15 4.76314 -1.5
      vertex 1.87639 3.25 -1.5
      vertex 4.125 2.38157 -1.5
    endloop
  endfacet
  facet normal 0 0 1
    outer loop
      vertex 1.87639 -3.25 -1.5
      vertex 4.125 -2.38157 -1.5
      vertex 3.75278 0 -1.5
    endloop
  endfacet
  facet normal 0 0 1
    outer loop
      vertex -1.05763e-15 -4.76314 -1.5
      vertex 4.125 -2.38157 -1.5
      vertex 1.87639 -3.25 -1.5
    endloop
  endfacet
  facet normal 0 0 1
    outer loop
      vertex -4.125 -2.38157 -1.5
      vertex -1.87639 -3.25 -1.5
      vertex -3.75278 0 -1.5
    endloop
  endfacet
  facet normal 0 0 1
    outer loop
      vertex -4.125 -2.38157 -1.5
      vertex -1.05763e-15 -4.76314 -1.5
      vertex -1.87639 -3.25 -1.5
    endloop
  endfacet
  facet normal 0 0 1
    outer loop
      vertex -3.75278 0 -1.5
      vertex -1.87639 3.25 -1.5
      vertex -4.125 2.38157 -1.5
    endloop
  endfacet
  facet normal 0 0 1
    outer loop
      vertex 1.87639 -3.25 -1.5
      vertex -1.87639 -3.25 -1.5
      vertex -1.05763e-15 -4.76314 -1.5
    endloop
  endfacet
endsolid OpenSCAD_Model
